<svg width="107" height="30" xmlns="http://www.w3.org/2000/svg" xmlns:svg="http://www.w3.org/2000/svg"><rect id="backgroundrect" width="100%" height="100%" x="0" y="0" fill="none" stroke="none"/>

 <g style="" class="currentLayer">
  <title>Layer 1</title>
  <path id="svg_10" fill="#231f20" d="m77.59903,23.962696c2.600006,1 8.199997,1.9 12.600006,1.9c4.800003,0 6.800003,-1.6 6.800003,-3.700001c0,-1.799999 -1.800003,-2.9 -7.100006,-4.9c-7.100006,-2.6 -12.199997,-4.7 -12.199997,-9.3c0,-4.8 6.199997,-7.6 15.699997,-7.6c5.100006,0 6.800003,0.3 10.100006,0.9l0,4.6c-3.200012,-0.6 -6,-1.6 -10.400009,-1.6c-4.699997,0 -6.699997,1.5 -6.699997,3c0,2.2 3.100006,3.3 8.5,5.2c7.5,2.7 11.699997,4.8 11.699997,9.3c0,4.700001 -5.199997,8 -17.099991,8c-4.800003,0 -8.200012,-0.299999 -11.900009,-0.9l0,-4.9z" class="selected" stroke="#ffffff" stroke-opacity="1"/>
  <path id="svg_11" fill="#231f20" d="m52.499023,4.362695l-5.600006,0l0,21.3l5.600006,0c8.600006,0 14.100006,-3.699999 14.100006,-10.6c0,-6.9 -5.400009,-10.699999 -14.100006,-10.699999m15.100006,23.3c-2.800003,1.300001 -8,2.1 -12.600006,2.1l-17.600006,0l0,-29.3l17.600006,0c4.600006,0 9.899994,0.8 12.699997,2.1c6.800003,3.099999 9,7.9 9,12.599999c0,4.6 -2.199997,9.5 -9,12.6" class="" stroke="#ffffff" stroke-opacity="1"/>
  <path id="svg_12" fill="#cf181f" d="m24.999023,13.662695c0,0 8.199997,-1.299999 8.199997,-6.4c0,-5 -8.699997,-7 -18,-7c-8.399994,0 -13.899994,1 -13.899994,1l0,4.5c3.800003,-0.9 7.399994,-1.7 12.399994,-1.7c5.300003,0 9.400009,1.599999 9.400009,3.8c0,2.7 -4,4.299999 -12.700012,4.299999l-4,0l0,4.1l3.700012,0c9.099991,0 14.299988,1.4 14.299988,4.700001c0,3 -4.599991,4.799999 -10.399994,4.799999c-5,0 -9.600006,-1.1 -13.399994,-2.1l0,4.9c1.799988,0.300001 6.599991,1.299999 15.399994,1.299999c9.800003,0 18.399994,-3.199999 18.399994,-8.699999c0,-4.699999 -5.899994,-7.4 -9.399994,-7.4"/>
 </g>
</svg>